{
    "asset" : {
        "generator" : "Khronos glTF Blender I/O v1.8.19",
        "version" : "2.0"
    },
    "scene" : 0,
    "scenes" : [
        {
            "name" : "Scene",
            "nodes" : [
                8
            ]
        }
    ],
    "nodes" : [
        {
            "mesh" : 0,
            "name" : "Comp_Screen.000_TerminalMaterial_0"
        },
        {
            "children" : [
                0
            ],
            "name" : "Comp_Screen.000",
            "rotation" : [
                -0.7071068286895752,
                0,
                0,
                0.7071067094802856
            ],
            "scale" : [
                212.24996948242188,
                212.24996948242188,
                212.24996948242188
            ],
            "translation" : [
                18.161306381225586,
                0,
                0
            ]
        },
        {
            "mesh" : 1,
            "name" : "Comp_Screen.002_TerminalMaterial_0"
        },
        {
            "children" : [
                2
            ],
            "name" : "Comp_Screen.002",
            "rotation" : [
                -0.7071068286895752,
                0,
                0,
                0.7071067094802856
            ],
            "scale" : [
                212.24996948242188,
                212.24996948242188,
                212.24996948242188
            ],
            "translation" : [
                18.161306381225586,
                0,
                0
            ]
        },
        {
            "mesh" : 2,
            "name" : "Plane_ShadowMaterial_0"
        },
        {
            "children" : [
                4
            ],
            "name" : "Plane",
            "rotation" : [
                -0.7071068286895752,
                0,
                0,
                0.7071067094802856
            ],
            "scale" : [
                120.57162475585938,
                120.57162475585938,
                120.57162475585938
            ],
            "translation" : [
                0,
                -5.373410701751709,
                -41.866615295410156
            ]
        },
        {
            "children" : [
                1,
                3,
                5
            ],
            "name" : "RootNode"
        },
        {
            "children" : [
                6
            ],
            "name" : "b462ac61a74e43db85f1b4fa07188c50.fbx",
            "rotation" : [
                0.7071068286895752,
                0,
                0,
                0.7071068286895752
            ]
        },
        {
            "children" : [
                7
            ],
            "name" : "Sketchfab_model",
            "rotation" : [
                -0.7071068286895752,
                0,
                0,
                0.7071068286895752
            ],
            "scale" : [
                0.004035395570099354,
                0.004035395570099354,
                0.004035395570099354
            ]
        }
    ],
    "materials" : [
        {
            "emissiveFactor" : [
                1,
                1,
                1
            ],
            "emissiveTexture" : {
                "index" : 0
            },
            "name" : "TerminalMaterial",
            "normalTexture" : {
                "index" : 1
            },
            "occlusionTexture" : {
                "index" : 2
            },
            "pbrMetallicRoughness" : {
                "baseColorTexture" : {
                    "index" : 3
                },
                "metallicRoughnessTexture" : {
                    "index" : 2
                }
            }
        },
        {
            "alphaMode" : "BLEND",
            "doubleSided" : true,
            "name" : "ShadowMaterial",
            "pbrMetallicRoughness" : {
                "baseColorFactor" : [
                    0.04645533859729767,
                    0.10588838160037994,
                    0.1864841729402542,
                    1
                ],
                "baseColorTexture" : {
                    "index" : 4
                },
                "metallicFactor" : 0
            }
        }
    ],
    "meshes" : [
        {
            "name" : "Comp_Screen.000_TerminalMaterial_0",
            "primitives" : [
                {
                    "attributes" : {
                        "POSITION" : 0,
                        "NORMAL" : 1,
                        "TANGENT" : 2,
                        "TEXCOORD_0" : 3,
                        "TEXCOORD_1" : 4
                    },
                    "indices" : 5,
                    "material" : 0
                }
            ]
        },
        {
            "name" : "Comp_Screen.002_TerminalMaterial_0",
            "primitives" : [
                {
                    "attributes" : {
                        "POSITION" : 6,
                        "NORMAL" : 7,
                        "TANGENT" : 8,
                        "TEXCOORD_0" : 9,
                        "TEXCOORD_1" : 10
                    },
                    "indices" : 11,
                    "material" : 0
                }
            ]
        },
        {
            "name" : "Plane_ShadowMaterial_0",
            "primitives" : [
                {
                    "attributes" : {
                        "POSITION" : 12,
                        "NORMAL" : 13,
                        "TANGENT" : 14,
                        "TEXCOORD_0" : 15
                    },
                    "indices" : 16,
                    "material" : 1
                }
            ]
        }
    ],
    "textures" : [
        {
            "sampler" : 0,
            "source" : 0
        },
        {
            "sampler" : 0,
            "source" : 1
        },
        {
            "sampler" : 0,
            "source" : 2
        },
        {
            "sampler" : 0,
            "source" : 3
        },
        {
            "sampler" : 0,
            "source" : 4
        }
    ],
    "images" : [
        {
            "mimeType" : "image/png",
            "name" : "TerminalMaterial_emissive.png",
            "uri" : "../textures/TerminalMaterial_emissive.png"
        },
        {
            "mimeType" : "image/jpeg",
            "name" : "TerminalMaterial_normal.jpg",
            "uri" : "../textures/TerminalMaterial_normal.jpg"
        },
        {
            "mimeType" : "image/jpeg",
            "name" : "TerminalMaterial_metallicRoughness.jpg",
            "uri" : "../textures/TerminalMaterial_metallicRoughness.jpg"
        },
        {
            "mimeType" : "image/jpeg",
            "name" : "TerminalMaterial_baseColor.jpg",
            "uri" : "../textures/TerminalMaterial_baseColor.jpg"
        },
        {
            "mimeType" : "image/png",
            "name" : "ShadowMaterial_baseColor.png",
            "uri" : "../textures/ShadowMaterial_baseColor.png"
        }
    ],
    "accessors" : [
        {
            "bufferView" : 0,
            "componentType" : 5126,
            "count" : 632,
            "max" : [
                0.8384420871734619,
                -0.5767863392829895,
                0.31822669506073
            ],
            "min" : [
                -0.8403129577636719,
                -0.9841107130050659,
                0.209981769323349
            ],
            "type" : "VEC3"
        },
        {
            "bufferView" : 1,
            "componentType" : 5126,
            "count" : 632,
            "type" : "VEC3"
        },
        {
            "bufferView" : 2,
            "componentType" : 5126,
            "count" : 632,
            "type" : "VEC4"
        },
        {
            "bufferView" : 3,
            "componentType" : 5126,
            "count" : 632,
            "type" : "VEC2"
        },
        {
            "bufferView" : 4,
            "componentType" : 5126,
            "count" : 632,
            "type" : "VEC2"
        },
        {
            "bufferView" : 5,
            "componentType" : 5123,
            "count" : 2376,
            "type" : "SCALAR"
        },
        {
            "bufferView" : 6,
            "componentType" : 5126,
            "count" : 898,
            "max" : [
                0.9115664958953857,
                0.532355010509491,
                1.3269298076629639
            ],
            "min" : [
                -0.9115669131278992,
                -1.1415594816207886,
                0.06479261815547943
            ],
            "type" : "VEC3"
        },
        {
            "bufferView" : 7,
            "componentType" : 5126,
            "count" : 898,
            "type" : "VEC3"
        },
        {
            "bufferView" : 8,
            "componentType" : 5126,
            "count" : 898,
            "type" : "VEC4"
        },
        {
            "bufferView" : 9,
            "componentType" : 5126,
            "count" : 898,
            "type" : "VEC2"
        },
        {
            "bufferView" : 10,
            "componentType" : 5126,
            "count" : 898,
            "type" : "VEC2"
        },
        {
            "bufferView" : 11,
            "componentType" : 5123,
            "count" : 1593,
            "type" : "SCALAR"
        },
        {
            "bufferView" : 12,
            "componentType" : 5126,
            "count" : 6,
            "max" : [
                4.778233528137207,
                6.165360450744629,
                0.15808576345443726
            ],
            "min" : [
                -4.476981163024902,
                -3.791534900665283,
                0.15808573365211487
            ],
            "type" : "VEC3"
        },
        {
            "bufferView" : 13,
            "componentType" : 5126,
            "count" : 6,
            "type" : "VEC3"
        },
        {
            "bufferView" : 14,
            "componentType" : 5126,
            "count" : 6,
            "type" : "VEC4"
        },
        {
            "bufferView" : 15,
            "componentType" : 5126,
            "count" : 6,
            "type" : "VEC2"
        },
        {
            "bufferView" : 16,
            "componentType" : 5123,
            "count" : 6,
            "type" : "SCALAR"
        }
    ],
    "bufferViews" : [
        {
            "buffer" : 0,
            "byteLength" : 7584,
            "byteOffset" : 0
        },
        {
            "buffer" : 0,
            "byteLength" : 7584,
            "byteOffset" : 7584
        },
        {
            "buffer" : 0,
            "byteLength" : 10112,
            "byteOffset" : 15168
        },
        {
            "buffer" : 0,
            "byteLength" : 5056,
            "byteOffset" : 25280
        },
        {
            "buffer" : 0,
            "byteLength" : 5056,
            "byteOffset" : 30336
        },
        {
            "buffer" : 0,
            "byteLength" : 4752,
            "byteOffset" : 35392
        },
        {
            "buffer" : 0,
            "byteLength" : 10776,
            "byteOffset" : 40144
        },
        {
            "buffer" : 0,
            "byteLength" : 10776,
            "byteOffset" : 50920
        },
        {
            "buffer" : 0,
            "byteLength" : 14368,
            "byteOffset" : 61696
        },
        {
            "buffer" : 0,
            "byteLength" : 7184,
            "byteOffset" : 76064
        },
        {
            "buffer" : 0,
            "byteLength" : 7184,
            "byteOffset" : 83248
        },
        {
            "buffer" : 0,
            "byteLength" : 3186,
            "byteOffset" : 90432
        },
        {
            "buffer" : 0,
            "byteLength" : 72,
            "byteOffset" : 93620
        },
        {
            "buffer" : 0,
            "byteLength" : 72,
            "byteOffset" : 93692
        },
        {
            "buffer" : 0,
            "byteLength" : 96,
            "byteOffset" : 93764
        },
        {
            "buffer" : 0,
            "byteLength" : 48,
            "byteOffset" : 93860
        },
        {
            "buffer" : 0,
            "byteLength" : 12,
            "byteOffset" : 93908
        }
    ],
    "samplers" : [
        {
            "magFilter" : 9729,
            "minFilter" : 9987
        }
    ],
    "buffers" : [
        {
            "byteLength" : 93920,
            "uri" : "scene.bin"
        }
    ]
}
